<svg width="301" height="146" viewBox="0 0 301 146" fill="none" xmlns="http://www.w3.org/2000/svg">
<path d="M125.143 83.4286C125.143 100.024 118.551 115.939 106.816 127.673C95.0817 139.408 79.1664 146 62.5714 146C45.9765 146 30.0612 139.408 18.3268 127.673C6.59233 115.939 2.50577e-06 100.024 0 83.4286L62.5714 83.4286H125.143Z" fill="#9D9D9D"/>
<path d="M125.143 0H258.874C281.912 0 300.588 18.6761 300.588 41.7143V41.7143C300.588 64.7524 281.912 83.4286 258.874 83.4286H125.143V0Z" fill="#4B4B4B"/>
<rect x="62.5714" width="62.5714" height="146" fill="#989898"/>
<rect x="125.143" width="62.5714" height="146" fill="#5E5E5E"/>
<rect x="125.143" width="62.5714" height="83.4286" fill="#858585"/>
<path d="M125.143 83.4286C125.143 91.6456 123.524 99.7821 120.38 107.374C117.235 114.965 112.626 121.863 106.816 127.673C101.006 133.484 94.108 138.093 86.5165 141.237C78.925 144.382 70.7884 146 62.5714 146L62.5714 83.4286H125.143Z" fill="#747474"/>
</svg>
